<svg width="32769" height="11745" viewBox="0 0 32769 11745" fill="none" xmlns="http://www.w3.org/2000/svg">
<path d="M461.316 6187C246.838 6038.11 252.674 5716.41 472.234 5575.11C2753.53 4107.05 3965.92 2848.61 5565.3 464.621C5710.58 248.083 6032.05 249.917 6175.63 467.586C7829.31 2974.71 9091.15 4189.08 11251.1 5564.71C11476.4 5708.15 11478 6038.94 11253.9 6184.14C9041.01 7617.99 7788.65 8836.39 6167.95 11289.8C6026.32 11504.2 5711.17 11509.8 5563.36 11299.6C4021.4 9107.14 2831.64 7832.49 461.316 6187Z" fill="#141821"/>
<path d="M1693.83 6169.53C1493.35 6029.03 1499.08 5726.99 1704.36 5593.29C3421.83 4474.68 4369.62 3492.41 5583.89 1696.97C5720.84 1494.47 6022.08 1495.8 6157.58 1699.34C7412.41 3584.31 8394.89 4535.22 10019.9 5582.9C10230.4 5718.63 10231.7 6029.56 10022.2 6166.84C8357.03 7258.12 7380.98 8211.95 6149.87 10058.8C6016.22 10259.3 5720.81 10263.9 5581.62 10067.3C4410.37 8413.5 3478.45 7420.15 1693.83 6169.53Z" fill="#141821" stroke="#737373" stroke-width="62"/>
<path d="M5587.55 10080.2L4471.68 8639.85L6964.52 8638.82H7037H7213.31L6700.61 9280.24L6173.53 10048.9L6022.31 10185.4L5930.83 10214.2H5827.92H5758.21L5679.65 10168L5587.55 10080.2Z" fill="#737373"/>
<path fill-rule="evenodd" clip-rule="evenodd" d="M4843.11 6862.71L4843.11 6622.27C4747.75 6603.54 4653.79 6582.82 4619.87 6570.72C4576.39 6555.35 4529.9 6539.55 4481.9 6523.24C4150.4 6410.58 3746.83 6273.44 3767.25 6086.23C3720.62 5875.39 4382.33 5566.35 4815.04 5398.27L4768.53 5371.93L4727.79 5337.31L4660.43 5291.52L4581.97 5248.5L4451.16 5297.52C4069.9 5439.76 3782.71 5604.88 3617.49 5775.31C3507.95 5889.9 3476.27 5953.18 3475.29 6066.55C3474 6163 3491.83 6212.95 3560.96 6300.12C3689.56 6463.17 4002.74 6626.97 4482.58 6780.82C4576.61 6811.21 4699.68 6838.88 4843.11 6862.71ZM7367.39 6731.82C7196.3 6801.52 7016.3 6847.67 6789.87 6885.7L6772.17 6653.78C6837.45 6640.9 6903.08 6626.58 6969.41 6610.84C7396.88 6512.2 7647.46 6386.03 7784.5 6234.54C7898.56 6105.83 7900.13 6013.02 7774.14 5873.22C7725.37 5821.1 7512.27 5717.73 7408.15 5667.22C7402.02 5664.24 7396.26 5661.45 7390.93 5658.86L7320.37 5626.33L7197.66 5637.96C7163.44 5641.05 7146.73 5643.86 7133.96 5646.01C7121.6 5648.09 7112.92 5649.55 7095.59 5650.05L7012.64 5652.42L6902.53 5441.39C6889.02 5413.42 6879.2 5392.09 6871.04 5374.38C6847.71 5323.76 6838.04 5302.77 6795.12 5241.04C7165.7 5326.26 7535.14 5416.12 7903.36 5510.61C7905.47 5511.4 7868.94 5523.45 7823.7 5538.36L7823.65 5538.38L7822.2 5538.85C7818.31 5540.14 7814.46 5541.4 7810.66 5542.65C7769.53 5556.18 7734.44 5567.73 7729.74 5572.61C7725.62 5576.7 7741.41 5592.31 7766.5 5606.63C8067.57 5778.56 8157.52 5878.44 8162.18 6041.06C8167.41 6091.82 8156.7 6142.94 8131.48 6187.6C8089.12 6278.14 7989.52 6382.59 7861.92 6469.53C7704.46 6569.73 7539.09 6657.44 7367.39 6731.82Z" fill="url(#paint0_linear_164_75)"/>
<path d="M6768.08 5630.88L6587.08 5630.88H6557.2V4628.84H5147.5V5630.88L4968.78 5630.88L5147.49 5784.35H6557.2L6768.08 5630.88Z" fill="url(#paint1_linear_164_75)"/>
<path d="M6642.61 4594.2L6768.08 4478.35L4968.78 4476.53L5074.57 4594.2H6642.61Z" fill="url(#paint2_linear_164_75)"/>
<path d="M6567.75 4434.93V4268.03L6606.76 4218.64H6360.03V3803.14L6507.12 3738.18L6266.19 3634.92H5418.12L5202.15 3738.18L5333.77 3803.14V4218.64H5101.28L5147.5 4268.03V4434.93H6567.75Z" fill="url(#paint3_linear_164_75)"/>
<path d="M5165.6 3700.39L5101.28 3667.57C5134.9 3647.68 5233.08 3594.95 5356.79 3543.1C5435.94 3296.09 5671.76 3182.3 5779.77 3156.28V3064.95L5723.01 3013.25L5795.59 2942.14L5820.89 2709.95L5767.12 2677.96L5833.37 2670.17L5849.71 2619.62C5852.1 2616.31 5853.99 2618.24 5854.63 2619.62L5871.85 2670.17L5937.23 2677.96L5875.54 2709.95L5895.75 2942.14L5971.32 3013.25L5911.92 3064.95V3156.28C6159.63 3190.75 6313.87 3428.53 6360.03 3543.1L6606.76 3667.57L6528.03 3684.97L6266.19 3581.22H5418.12L5165.6 3700.39Z" fill="url(#paint4_linear_164_75)"/>
<path fill-rule="evenodd" clip-rule="evenodd" d="M5147.49 5859.42L5098.82 7514.63H4631.02L4785.67 7664.29V8596.55L4720.47 8638.82H5656.06H7009.37L6945.91 8596.55V7664.29L7114.09 7514.63H6620.29L6557.2 5859.42H5147.49ZM5370.14 6247.57V7514.63H6305.2V6247.57C5977.5 5716.55 5545.29 6026.31 5370.14 6247.57Z" fill="url(#paint5_linear_164_75)"/>
<path d="M6220.38 5161.35C6220.38 5383.61 6040.36 5563.76 5818.34 5563.76C5596.31 5563.76 5416.29 5383.61 5416.29 5161.35C5416.29 4939.09 5596.31 4758.94 5818.34 4758.94C6040.36 4758.94 6220.38 4939.09 6220.38 5161.35Z" fill="#141821" stroke="white" stroke-width="51"/>
<path d="M5828.29 5222.33C5861.97 5222.33 5889.28 5195.03 5889.28 5161.35C5889.28 5127.67 5861.97 5100.36 5828.29 5100.36C5794.61 5100.36 5767.31 5127.67 5767.31 5161.35C5767.31 5195.03 5794.61 5222.33 5828.29 5222.33ZM5839.73 5161.35V4894.3H5816.86V5161.35H5839.73Z" fill="white"/>
<line x1="6101.98" y1="5158.03" x2="5818.7" y2="5158.03" stroke="white" stroke-width="31"/>
<path d="M13187.3 2884.74H13718.4V5983.03H13187.3V2884.74ZM16398.3 2884.74V3380.46H14924.4V4186.02H16079.6V4681.75H14924.4V5487.31H16398.3V5983.03H14393.2V2884.74H16398.3ZM18987.4 2884.74V3380.46H17513.5V4186.02H18668.7V4681.75H17513.5V5487.31H18987.4V5983.03H16982.4V2884.74H18987.4ZM21576.5 2884.74V3380.46H20102.6V4186.02H21257.8V4681.75H20102.6V5487.31H21576.5V5983.03H19571.5V2884.74H21576.5ZM23555.7 5248.3C23650.1 5378.13 23771.1 5468.13 23918.6 5518.29C24066.1 5565.5 24216.6 5589.11 24370.1 5589.11C24429.1 5589.11 24492.5 5583.21 24560.4 5571.4C24628.3 5559.6 24691.7 5538.95 24750.7 5509.44C24809.7 5479.93 24858.4 5441.57 24896.8 5394.36C24935.1 5344.2 24954.3 5282.23 24954.3 5208.46C24954.3 5108.13 24911.5 5025.51 24826 4960.6C24740.4 4892.73 24634.2 4829.29 24507.3 4770.27C24380.4 4711.26 24241.7 4652.24 24091.2 4593.23C23943.7 4534.21 23806.5 4464.87 23679.6 4385.2C23552.7 4302.58 23446.5 4203.73 23360.9 4088.65C23275.3 3973.57 23232.6 3831.93 23232.6 3663.74C23232.6 3513.25 23262.1 3381.94 23321.1 3269.81C23380.1 3154.73 23458.3 3060.31 23555.7 2986.54C23653 2909.82 23765.2 2852.28 23892.1 2813.92C24021.9 2775.56 24156.1 2756.38 24294.8 2756.38C24498.4 2756.38 24694.7 2797.69 24883.5 2880.31C25072.4 2959.98 25239.1 3070.63 25383.7 3212.27L25034 3601.77C24930.7 3498.49 24814.2 3418.82 24684.3 3362.76C24557.5 3306.69 24421.7 3278.66 24277.1 3278.66C24212.2 3278.66 24147.3 3286.04 24082.4 3300.79C24020.4 3312.6 23964.3 3334.73 23914.2 3367.19C23867 3396.69 23828.6 3438 23799.1 3491.12C23769.6 3541.28 23754.8 3604.72 23754.8 3681.44C23754.8 3769.96 23797.6 3845.21 23883.2 3907.17C23968.8 3966.19 24075 4023.73 24201.9 4079.79C24328.8 4132.91 24466 4188.97 24613.5 4247.99C24764 4307 24902.7 4379.3 25029.6 4464.87C25156.5 4547.49 25262.7 4650.77 25348.3 4774.7C25433.8 4895.68 25476.6 5046.17 25476.6 5226.16C25476.6 5376.65 25442.7 5507.96 25374.8 5620.09C25306.9 5729.27 25219.9 5820.74 25113.7 5894.51C25007.4 5968.28 24886.5 6022.87 24750.7 6058.28C24617.9 6093.69 24485.2 6111.39 24352.4 6111.39C24237.3 6111.39 24122.2 6101.07 24007.1 6080.41C23895 6059.75 23785.8 6027.3 23679.6 5983.03C23576.3 5938.77 23478.9 5882.71 23387.5 5814.84C23296 5746.97 23214.9 5665.83 23144 5571.4L23555.7 5248.3ZM26059.4 2884.74H27037.6C27241.2 2884.74 27415.3 2920.15 27559.9 2990.96C27704.5 3061.78 27818.1 3154.73 27900.7 3269.81C27986.3 3381.94 28042.3 3507.35 28068.9 3646.03C28095.4 3781.77 28091 3916.03 28055.6 4048.81C28023.1 4178.64 27959.7 4299.63 27865.3 4411.75C27773.8 4523.88 27651.3 4609.46 27497.9 4668.47L28396.4 5983.03H27763.5L26926.9 4748.14H26590.5V5983.03H26059.4V2884.74ZM26590.5 4247.99H27037.6C27149.7 4247.99 27242.7 4227.33 27316.4 4186.02C27393.2 4141.76 27449.2 4088.65 27484.6 4026.68C27523 3961.76 27542.2 3892.42 27542.2 3818.65C27542.2 3741.93 27523 3672.59 27484.6 3610.62C27446.3 3545.71 27390.2 3492.59 27316.4 3451.28C27242.7 3407.02 27149.7 3384.89 27037.6 3384.89H26590.5V4247.99ZM29311.1 2884.74H29488.1L30661 5111.08L31834 2884.74H32011L32475.8 5983.03H31953.5L31679.1 4212.58L30749.6 5983.03H30572.5L29638.6 4212.58L29368.6 5983.03H28846.3L29311.1 2884.74Z" fill="#CACACA"/>
<path d="M13269.2 8271.35C13316.4 8336.27 13376.9 8381.27 13450.7 8406.35C13524.4 8429.95 13599.7 8441.76 13676.4 8441.76C13705.9 8441.76 13737.6 8438.81 13771.5 8432.9C13805.5 8427 13837.2 8416.67 13866.7 8401.92C13896.2 8387.17 13920.6 8367.99 13939.7 8344.38C13958.9 8319.3 13968.5 8288.32 13968.5 8251.43C13968.5 8201.27 13947.1 8159.96 13904.3 8127.5C13861.5 8093.57 13808.4 8061.85 13745 8032.34C13681.5 8002.83 13612.2 7973.32 13537 7943.82C13463.2 7914.31 13394.6 7879.64 13331.1 7839.8C13267.7 7798.49 13214.6 7749.06 13171.8 7691.53C13129 7633.99 13107.6 7563.17 13107.6 7479.07C13107.6 7403.83 13123.9 7341.86 13156.3 7293.17C13188.8 7243.01 13231.6 7203.17 13284.7 7173.67C13337.8 7142.68 13397.5 7121.29 13463.9 7109.49C13531.8 7096.21 13600.4 7089.57 13669.7 7089.57H15391.5V7337.43H14886.9V8638.72H14621.4V7337.43H13669.7C13634.3 7337.43 13598.9 7338.91 13563.5 7341.86C13528.1 7344.81 13495.6 7351.45 13466.1 7361.78C13438.1 7372.11 13414.5 7387.6 13395.3 7408.25C13377.6 7427.43 13368.8 7453.99 13368.8 7487.92C13368.8 7532.18 13390.2 7569.81 13432.9 7600.79C13475.7 7630.3 13528.8 7659.07 13592.3 7687.1C13655.7 7713.66 13724.3 7741.69 13798.1 7771.2C13873.3 7800.7 13942.7 7836.85 14006.1 7879.64C14069.6 7920.95 14122.7 7972.59 14165.5 8034.55C14208.3 8095.04 14229.7 8170.29 14229.7 8260.28C14229.7 8335.53 14212.7 8401.18 14178.8 8457.25C14144.8 8511.84 14101.3 8557.57 14048.2 8594.46C13995.1 8631.34 13934.6 8658.64 13866.7 8676.34C13800.3 8694.05 13733.9 8702.9 13667.5 8702.9C13610 8702.9 13552.5 8697.73 13494.9 8687.41C13438.8 8677.08 13384.3 8660.85 13331.1 8638.72C13279.5 8616.59 13230.8 8588.56 13185.1 8554.62C13139.3 8520.69 13098.8 8480.12 13063.4 8432.9L13269.2 8271.35ZM15616.3 7089.57H15881.8V8050.04C15881.8 8110.53 15892.2 8163.65 15912.8 8209.38C15933.5 8253.65 15960.8 8291.27 15994.7 8322.25C16028.6 8351.76 16067 8373.89 16109.8 8388.64C16154 8403.4 16198.3 8410.77 16242.6 8410.77C16288.3 8410.77 16332.6 8403.4 16375.3 8388.64C16418.1 8373.89 16456.5 8351.76 16490.4 8322.25C16524.4 8291.27 16551.7 8253.65 16572.3 8209.38C16593 8163.65 16603.3 8110.53 16603.3 8050.04V7089.57H16868.9V8050.04C16868.9 8156.27 16851.2 8249.96 16815.7 8331.1C16780.3 8410.77 16733.1 8477.9 16674.1 8532.49C16615.1 8585.61 16548 8625.44 16472.7 8652C16397.5 8678.55 16320.8 8691.83 16242.6 8691.83C16164.4 8691.83 16087.6 8678.55 16012.4 8652C15937.2 8625.44 15870 8585.61 15811 8532.49C15753.5 8477.9 15706.3 8410.77 15669.4 8331.1C15634 8249.96 15616.3 8156.27 15616.3 8050.04V7089.57ZM17183.7 7089.57H17641.8C17774.5 7091.05 17890.4 7113.91 17989.2 7158.18C18088.1 7202.44 18169.9 7261.45 18234.9 7335.22C18301.3 7407.51 18350.7 7490.14 18383.1 7583.08C18417.1 7674.56 18434 7768.24 18434 7864.14C18434 7960.04 18417.1 8054.47 18383.1 8147.42C18350.7 8238.89 18301.3 8321.51 18234.9 8395.28C18169.9 8467.58 18088.1 8525.85 17989.2 8570.11C17890.4 8614.38 17774.5 8637.24 17641.8 8638.72H17183.7V7089.57ZM17449.2 7337.43V8388.64H17630.7C17747.2 8388.64 17843.9 8362.82 17920.6 8311.18C17998.8 8259.55 18057.1 8194.63 18095.4 8116.43C18135.3 8038.24 18155.2 7954.14 18155.2 7864.14C18155.2 7772.67 18136 7687.84 18097.6 7609.64C18059.3 7531.45 18001 7466.53 17922.8 7414.89C17844.6 7363.25 17747.2 7337.43 17630.7 7337.43H17449.2ZM19737.9 7089.57V7337.43H19001V7740.21H19578.6V7988.08H19001V8390.86H19737.9V8638.72H18735.4V7089.57H19737.9ZM20120.7 7089.57L21028 8065.53V7089.57H21293.6V8638.72H21205.1L20295.5 7660.54V8638.72H20030V7089.57H20120.7ZM21540.7 7337.43V7089.57H22815.4V7337.43H22308.7V8638.72H22043.1V7337.43H21540.7ZM23600.3 7089.57H24138C24253.1 7089.57 24347.5 7113.18 24421.3 7160.39C24496.6 7207.6 24550.4 7266.62 24582.9 7337.43C24616.8 7406.78 24629.3 7480.55 24620.5 7558.74C24613.1 7636.94 24585.1 7707.02 24536.4 7768.98C24595.4 7805.87 24641.9 7853.08 24675.8 7910.62C24709.7 7968.16 24731.1 8029.39 24740 8094.3C24750.3 8157.75 24747.4 8221.92 24731.1 8286.84C24716.4 8351.76 24689.1 8410.77 24649.3 8463.89C24609.4 8515.53 24557 8557.57 24492.1 8590.03C24427.2 8622.49 24350.5 8638.72 24262 8638.72H23600.3V7089.57ZM23865.8 7695.95H24138C24207.4 7695.95 24259.8 7677.51 24295.2 7640.62C24330.6 7602.26 24348.3 7560.95 24348.3 7516.69C24348.3 7470.96 24330.6 7429.65 24295.2 7392.76C24259.8 7354.4 24207.4 7335.22 24138 7335.22H23865.8V7695.95ZM23865.8 8390.86H24262C24309.2 8390.86 24348.3 8379.79 24379.3 8357.66C24410.2 8335.53 24433.1 8308.23 24447.9 8275.78C24464.1 8243.32 24472.2 8207.91 24472.2 8169.55C24472.2 8129.71 24464.1 8093.57 24447.9 8061.11C24433.1 8028.65 24410.2 8001.35 24379.3 7979.22C24348.3 7957.09 24309.2 7946.03 24262 7946.03H23865.8V8390.86ZM25039.6 7089.57H25528.7C25630.5 7089.57 25717.6 7107.27 25789.8 7142.68C25862.1 7178.09 25918.9 7224.57 25960.3 7282.11C26003 7338.17 26031.1 7400.88 26044.4 7470.22C26057.6 7538.09 26055.4 7605.22 26037.7 7671.61C26021.5 7736.52 25989.8 7797.01 25942.6 7853.08C25896.8 7909.14 25835.6 7951.93 25758.9 7981.44L26208.1 8638.72H25891.7L25473.4 8021.27H25305.2V8638.72H25039.6V7089.57ZM25305.2 7771.2H25528.7C25584.8 7771.2 25631.2 7760.87 25668.1 7740.21C25706.5 7718.08 25734.5 7691.53 25752.2 7660.54C25771.4 7628.08 25781 7593.41 25781 7556.53C25781 7518.17 25771.4 7483.5 25752.2 7452.51C25733 7420.06 25705 7393.5 25668.1 7372.84C25631.2 7350.71 25584.8 7339.65 25528.7 7339.65H25305.2V7771.2ZM26366.7 8638.72L27088.1 7067.44H27132.4L27851.7 8638.72H27577.2L27477.6 8421.84H26742.9L26643.3 8638.72H26366.7ZM27362.6 8173.97L27110.3 7625.13L26855.8 8173.97H27362.6ZM28190.6 7089.57L29098 8065.53V7089.57H29363.5V8638.72H29275L28365.4 7660.54V8638.72H28099.9V7089.57H28190.6ZM30462.7 8671.92C30329.9 8671.92 30213.3 8649.05 30113 8603.31C30014.2 8556.1 29930.8 8494.87 29862.9 8419.63C29796.5 8344.38 29746.4 8258.07 29712.4 8160.7C29680 8063.32 29663.8 7964.47 29663.8 7864.14C29663.8 7763.82 29680 7664.97 29712.4 7567.59C29746.4 7470.22 29796.5 7383.91 29862.9 7308.66C29930.8 7233.42 30014.2 7172.93 30113 7127.19C30213.3 7079.98 30329.9 7056.37 30462.7 7056.37C30545.3 7056.37 30626.4 7070.39 30706.1 7098.42C30785.8 7124.98 30858.8 7163.34 30925.2 7213.5L30770.3 7430.38C30737.8 7400.88 30695.1 7375.06 30641.9 7352.93C30590.3 7330.79 30531.3 7319.73 30464.9 7319.73C30348.3 7319.73 30251 7347.02 30172.8 7401.61C30096 7454.73 30038.5 7521.86 30000.1 7603C29961.8 7682.67 29942.6 7769.72 29942.6 7864.14C29942.6 7958.57 29961.8 8046.35 30000.1 8127.5C30038.5 8207.17 30096 8274.3 30172.8 8328.89C30251 8382 30348.3 8408.56 30464.9 8408.56C30547.5 8408.56 30613.2 8396.76 30661.9 8373.15C30710.5 8348.07 30746.7 8324.46 30770.3 8302.33L30925.2 8514.79C30861.8 8566.43 30793.9 8605.52 30721.6 8632.08C30650.8 8658.64 30564.5 8671.92 30462.7 8671.92ZM31239.5 7089.57H31505V7740.21H32246.4V7089.57H32512V8638.72H32246.4V7988.08H31505V8638.72H31239.5V7988.08H30310V7740.21H31239.5V7089.57Z" fill="#CACACA"/>
<defs>
<linearGradient id="paint0_linear_164_75" x1="3452.19" y1="6063.54" x2="8639.26" y2="6063.54" gradientUnits="userSpaceOnUse">
<stop stop-color="white"/>
<stop offset="1" stop-color="#5D616A"/>
</linearGradient>
<linearGradient id="paint1_linear_164_75" x1="5872.56" y1="2617.79" x2="5872.56" y2="8638.82" gradientUnits="userSpaceOnUse">
<stop stop-color="#FEFEFE"/>
<stop offset="1" stop-color="#6F6F6F"/>
</linearGradient>
<linearGradient id="paint2_linear_164_75" x1="5872.56" y1="2617.79" x2="5872.56" y2="8638.82" gradientUnits="userSpaceOnUse">
<stop stop-color="#FEFEFE"/>
<stop offset="1" stop-color="#6F6F6F"/>
</linearGradient>
<linearGradient id="paint3_linear_164_75" x1="5872.56" y1="2617.79" x2="5872.56" y2="8638.82" gradientUnits="userSpaceOnUse">
<stop stop-color="#FEFEFE"/>
<stop offset="1" stop-color="#6F6F6F"/>
</linearGradient>
<linearGradient id="paint4_linear_164_75" x1="5872.56" y1="2617.79" x2="5872.56" y2="8638.82" gradientUnits="userSpaceOnUse">
<stop stop-color="#FEFEFE"/>
<stop offset="1" stop-color="#6F6F6F"/>
</linearGradient>
<linearGradient id="paint5_linear_164_75" x1="5872.56" y1="2617.79" x2="5872.56" y2="8638.82" gradientUnits="userSpaceOnUse">
<stop stop-color="#FEFEFE"/>
<stop offset="1" stop-color="#6F6F6F"/>
</linearGradient>
</defs>
</svg>